<?xml version="1.0" encoding="utf-8"?>
<!-- Generator: Adobe Illustrator 26.0.2, SVG Export Plug-In . SVG Version: 6.00 Build 0)  -->
<svg version="1.1" id="Layer_1" xmlns="http://www.w3.org/2000/svg" xmlns:xlink="http://www.w3.org/1999/xlink" x="0px" y="0px"
	 viewBox="0 0 8000 3200" style="enable-background:new 0 0 8000 3200;" xml:space="preserve">
<style type="text/css">
	.st0{fill:#0D4C78;}
</style>
<g>
	<path class="st0" d="M1136.3,1326.7C595,1150,568,1133.7,445,1000c-84.2-92.2-130.2-212.9-128.7-337.7C316.3,373,552,164,879,164
		c391,0,755.3,230.3,857.3,546.7c26.7,85.7,37.3,101.7,69.7,101.7c21.3,0,42.7-26.7,42.7-64.3c0-16-5.3-53.3-10.7-96.7
		c-59-364-64.3-380-70-444.3c0-75-15.7-107.3-53.3-107.3c-8,1.3-15.5,5-21.3,10.7c-53.3,43-59,48.3-85.7,48.3
		c-14.7-1.6-29.2-5.2-43-10.7c-284-118-332-134-535.7-134v0C461,14,69.7,346,69.7,812.3c0,209,70,380.3,203.7,520
		c150,155,310.7,241,686,369.3c391,123.3,466,161,546.7,220c139,112.3,219.3,267.7,219.3,433.7c0,337.7-321.3,611-718,611
		c-241,0-492.7-96.7-648.3-252C241.3,2596.7,161,2462.7,91.3,2259c-10.7-26.7-21.7-42.7-43-42.7c-26.7,0-48.3,26.7-48.3,64
		c0,43,21.7,166.3,59,284c32.3,112.7,53.7,187.7,53.7,198.3c32.3,160.7,37.7,166,80.3,203.7c112.7,85.7,444.7,166,691.3,166
		c616,0,1055.3-391,1055.3-937.7C1939.7,1793,1677.3,1503.7,1136.3,1326.7z"/>
	<path class="st0" d="M3702.7,2194.7c-10.7-391-278.7-675-820-857.3c-546.7-182-573.3-192.7-691-326.7
		c-84.1-92.2-130.1-212.9-128.7-337.7c0-294.7,235.7-498.3,562.7-498.3c391,0,750,230.3,857.3,546.7
		c26.7,85.7,42.7,101.7,69.7,101.7c21.3,0,43-26.7,43-64.3c0-16-5.7-48-11-96.3c-59-364.3-64-380.3-69.7-444.7
		c0-75-16-107.3-53.3-107.3c-10.7,0-16.3,5.3-21.7,10.7c-53.3,43.3-58.7,48.3-85.7,48.3c-10.7,0-21.3-5.3-43-10.7
		c-278.3-123.3-332-134-530.3-134l0,0c-407.3,0-723.3,166-868,434l32,219.7c5.7,32,5.3,53.3,5.3,64.3c0,85.7-53.3,150-123,166
		c16,166.3,85.7,311,203.3,428.7c150,155.3,311,241.3,686,370c386,128.3,466.3,160.7,546.7,219.3c139.3,107.3,219.7,268,219.7,434
		c0,337.7-321.3,611-718,611c-241,0-493.3-96.7-648.3-251.7c-48.7-48.8-91.8-102.8-128.7-161c-32,75-69.7,150-112.7,214.3
		c32.3,150,37.7,161,80.7,193c112.3,85.7,444.7,166,691,166C3258,3132.3,3702.7,2741.3,3702.7,2194.7z"/>
	<polygon class="st0" points="7935.7,121 7935.7,121 7935.7,121 	"/>
	<path class="st0" d="M7935.7,121c-26.7,0-59,5.3-107.3,11c-53.3,10.7-107,16-198.3,16c-128.3,0-342.7-10.7-423.3-16l-96.3-5.3
		c-42.7,0-64.3,16-64.3,42.7c0,32,16.3,48.3,64.3,59c418,59,455.7,155.3,444.7,1178.7v1050c0,70-5.3,86-26.7,80.7
		c-10.7,0-26.7-16-59-53.3L5454.7,191c-42.7-48.3-69.7-64.3-117.7-64.3c-16,0-43,0-75,5.3h-37.7c-10.7,0-107,0-171.3-5.3
		c26.7,16,53.3,37.3,80,53.3c193.3,144.7,311,391.3,311,659c0,43-5.3,86-10.7,123.3v1393.3l53.3,80c48.3,70,86,128.7,123.3,182.3
		V1048c0-75,10.7-96.3,43-96.3c21.3,0,26.7,5.3,53.3,32l1848.7,2122c70,80.3,70,80.3,102,80.3c53.3,0,69.7-32.3,69.7-128.7v-42.7
		c5.3-128.7,5.3-326.7,5.3-605.7V983.7l5.3-139C7732,314,7753.3,260.3,7957,207c32-5.3,43-16.3,43-37.7
		C8000,142.7,7973.3,121,7935.7,121z"/>
	<path class="st0" d="M6060.3,3036c-230.3,5.3-386-123.3-659-541.3l-611-889.3C5143.7,1423,5337,1166,5337,839
		c0-235.7-96.7-444.7-268-573.3c-171.3-128.3-391.3-182-734-182c-102,0-214.3,5.3-326.7,10.7c-241.3,16-241.3,16-354,16h-42.7
		c11.8,32.7,17.3,67.3,16,102c5.3,42.7,5.3,64.3,37.3,241l37.7,235.7c3.7,21.2,5.4,42.8,5.3,64.3c1.2,46-16.2,90.4-48.3,123.3V1718
		c96.7,139,144.7,300,144.7,482c0,209-59,396.7-160.7,552c-26.7,193-96.7,241-273.3,294.7c-42.7,10.7-53.3,16-53.3,43
		c0,32,16,42.7,58.7,42.7c16,0,70-5.3,112.7-10.7c75-10.7,187.7-16,294.7-16c209,0,439.3,5.3,493,16c59,5.3,107,10.7,134,10.7
		c37.3,0,69.7-16,69.7-42.7c0-26.7-26.7-43-80.3-48.3c-311-32-412.7-144.7-402-450V1798c5.3-74.7,16-85.7,128.7-80h241
		c96.7,0,123.3,16,171.7,91c16,26.7,26.7,42.7,26.7,48l541,830.7c220,337.7,412.7,466.3,680.7,466.3c160.7,0,310.7-43,310.7-86
		C6097.7,3052,6081.7,3036,6060.3,3036z M4393.7,1551.7h-246.3c-144.7-5.3-155.3-16-155.3-155.3V507c0-150,0-166.3,26.7-203.7
		c32.3-43,96.7-69.7,198.3-69.7c203.7,0,423.3,69.7,546.7,182.3C4919,544.3,5010,758.7,5010,962.7
		C5010,1326.7,4779.7,1551.7,4393.7,1551.7z"/>
</g>
</svg>
